<mxfile host="Electron" agent="Mozilla/5.0 (Windows NT 10.0; Win64; x64) AppleWebKit/537.36 (KHTML, like Gecko) draw.io/26.2.2 Chrome/134.0.6998.178 Electron/35.1.2 Safari/537.36" version="26.2.2">
  <diagram name="Seite-1" id="Lu5dpaL-C1Al1vb1P4sE">
    <mxGraphModel dx="1188" dy="819" grid="1" gridSize="10" guides="1" tooltips="1" connect="1" arrows="1" fold="1" page="1" pageScale="1" pageWidth="1654" pageHeight="1169" math="0" shadow="0">
      <root>
        <mxCell id="0" />
        <mxCell id="1" parent="0" />
        <mxCell id="_frdChKPG1CfcYIjHcgl-9" value="Visualisieren" style="rounded=0;whiteSpace=wrap;html=1;dashed=1;verticalAlign=top;fontColor=#7A7A7A;" parent="1" vertex="1">
          <mxGeometry x="680" y="160" width="240" height="360" as="geometry" />
        </mxCell>
        <mxCell id="_frdChKPG1CfcYIjHcgl-8" value="Laden und Aufbereiten" style="rounded=0;whiteSpace=wrap;html=1;dashed=1;verticalAlign=top;fillColor=#fff2cc;strokeColor=#d6b656;" parent="1" vertex="1">
          <mxGeometry x="80" y="160" width="600" height="360" as="geometry" />
        </mxCell>
        <mxCell id="_frdChKPG1CfcYIjHcgl-1" value="Datenquelle" style="ellipse;shape=cloud;whiteSpace=wrap;html=1;" parent="1" vertex="1">
          <mxGeometry x="120" y="320" width="120" height="80" as="geometry" />
        </mxCell>
        <mxCell id="_frdChKPG1CfcYIjHcgl-2" value="Snowflake" style="strokeWidth=2;html=1;shape=mxgraph.flowchart.database;whiteSpace=wrap;verticalAlign=top;" parent="1" vertex="1">
          <mxGeometry x="320" y="240" width="320" height="200" as="geometry" />
        </mxCell>
        <mxCell id="_frdChKPG1CfcYIjHcgl-3" value="Data Warehouse" style="shape=cylinder3;whiteSpace=wrap;html=1;boundedLbl=1;backgroundOutline=1;size=5;verticalAlign=top;" parent="1" vertex="1">
          <mxGeometry x="350" y="330" width="90" height="60" as="geometry" />
        </mxCell>
        <mxCell id="_frdChKPG1CfcYIjHcgl-4" value="Datamart" style="shape=cylinder3;whiteSpace=wrap;html=1;boundedLbl=1;backgroundOutline=1;size=6;verticalAlign=top;" parent="1" vertex="1">
          <mxGeometry x="530" y="340" width="90" height="40" as="geometry" />
        </mxCell>
        <mxCell id="_frdChKPG1CfcYIjHcgl-6" value="" style="shape=flexArrow;endArrow=classic;html=1;rounded=0;width=20;endSize=7.33;entryX=0;entryY=0.5;entryDx=0;entryDy=0;entryPerimeter=0;fillColor=#1ba1e2;strokeColor=none;" parent="1" target="_frdChKPG1CfcYIjHcgl-3" edge="1">
          <mxGeometry width="50" height="50" relative="1" as="geometry">
            <mxPoint x="230" y="359.5" as="sourcePoint" />
            <mxPoint x="300" y="359.5" as="targetPoint" />
          </mxGeometry>
        </mxCell>
        <mxCell id="_frdChKPG1CfcYIjHcgl-7" value="" style="shape=flexArrow;endArrow=classic;html=1;rounded=0;width=20;endSize=7.33;entryX=0;entryY=0.5;entryDx=0;entryDy=0;entryPerimeter=0;fillColor=#dae8fc;strokeColor=none;" parent="1" target="_frdChKPG1CfcYIjHcgl-4" edge="1">
          <mxGeometry width="50" height="50" relative="1" as="geometry">
            <mxPoint x="440" y="359.5" as="sourcePoint" />
            <mxPoint x="490" y="359.5" as="targetPoint" />
            <Array as="points">
              <mxPoint x="460" y="359.5" />
              <mxPoint x="470" y="359.5" />
            </Array>
          </mxGeometry>
        </mxCell>
        <mxCell id="_frdChKPG1CfcYIjHcgl-10" value="Tableau" style="rounded=0;whiteSpace=wrap;html=1;dashed=1;dashPattern=8 8;fontColor=#8C8C8C;" parent="1" vertex="1">
          <mxGeometry x="760" y="210" width="120" height="60" as="geometry" />
        </mxCell>
        <mxCell id="_frdChKPG1CfcYIjHcgl-11" value="Streamlit" style="rounded=0;whiteSpace=wrap;html=1;dashed=1;dashPattern=8 8;fontColor=#8C8C8C;" parent="1" vertex="1">
          <mxGeometry x="760" y="330" width="120" height="60" as="geometry" />
        </mxCell>
        <mxCell id="_frdChKPG1CfcYIjHcgl-12" value="" style="shape=flexArrow;endArrow=classic;html=1;rounded=0;fillColor=#d5e8d4;strokeColor=none;entryX=0;entryY=0.5;entryDx=0;entryDy=0;" parent="1" target="_frdChKPG1CfcYIjHcgl-11" edge="1">
          <mxGeometry width="50" height="50" relative="1" as="geometry">
            <mxPoint x="620" y="360" as="sourcePoint" />
            <mxPoint x="750" y="330" as="targetPoint" />
            <Array as="points">
              <mxPoint x="700" y="360" />
            </Array>
          </mxGeometry>
        </mxCell>
        <mxCell id="_frdChKPG1CfcYIjHcgl-13" value="" style="shape=flexArrow;endArrow=classic;html=1;rounded=0;fillColor=#d5e8d4;strokeColor=none;exitX=1;exitY=0.5;exitDx=0;exitDy=0;exitPerimeter=0;entryX=0;entryY=0.5;entryDx=0;entryDy=0;" parent="1" source="_frdChKPG1CfcYIjHcgl-4" target="_frdChKPG1CfcYIjHcgl-10" edge="1">
          <mxGeometry width="50" height="50" relative="1" as="geometry">
            <mxPoint x="690" y="240" as="sourcePoint" />
            <mxPoint x="750" y="240" as="targetPoint" />
            <Array as="points">
              <mxPoint x="700" y="360" />
              <mxPoint x="700" y="240" />
            </Array>
          </mxGeometry>
        </mxCell>
      </root>
    </mxGraphModel>
  </diagram>
</mxfile>
